<?xml version="1.0" encoding="UTF-8"?>
<svg version="1.1" xmlns="http://www.w3.org/2000/svg" width="200" height="200">
<path d="M0 0 C66 0 132 0 200 0 C200 66 200 132 200 200 C134 200 68 200 0 200 C0 134 0 68 0 0 Z " fill="#FD5C36" transform="translate(0,0)"/>
<path d="M0 0 C12.66001884 9.32135901 18.66313876 19.99473748 21.20703125 35.625 C22.02703014 50.17521278 19.82528221 65.04834972 10.1796875 76.49609375 C3.58979241 83.60796073 -2.71950321 88.09737227 -11.79296875 91.625 C-6.05250074 93.80309758 -0.28209747 95.86634568 5.51953125 97.875 C12.48771697 100.29633702 19.41977728 102.79860189 26.33203125 105.375 C45.07349434 112.32177482 65.02101215 116.85133422 84.20703125 108.625 C86.70563986 107.36137702 89.11645524 106.04628244 91.5 104.578125 C93.20703125 103.625 93.20703125 103.625 95.20703125 103.625 C94.57054008 111.26289401 92.26720183 117.01782599 86.58203125 122.3125 C74.99879739 131.72522065 62.7885361 133.546399 48.20703125 132.625 C28.77286663 130.08081343 13.46998177 120.53747542 -2.8815918 110.42114258 C-13.07926683 104.04988075 -13.07926683 104.04988075 -23.79296875 98.625 C-24.44265625 98.33625 -25.09234375 98.0475 -25.76171875 97.75 C-30.52892894 95.90003784 -34.87581547 95.42001009 -39.98046875 95.1875 C-54.36396864 94.42517451 -69.1092203 89.72150937 -79.1328125 78.8359375 C-87.47963127 67.71993886 -91.15573208 57.41971411 -91.04296875 43.625 C-91.05070312 42.67882812 -91.0584375 41.73265625 -91.06640625 40.7578125 C-91.03010887 27.65445679 -86.57340683 15.15085722 -77.41796875 5.5625 C-57.78231859 -12.37870319 -22.06805532 -14.63884267 0 0 Z " fill="#F5F3F7" transform="translate(98.79296875,33.375)"/>
<path d="M0 0 C10.14112698 6.12261918 14.80418001 15.86482141 17.74658203 26.91674805 C18.80563492 32.11285486 18.76854427 37.21591391 18.6875 42.5 C18.69072266 43.55058594 18.69394531 44.60117188 18.69726562 45.68359375 C18.60622215 59.07526066 16.08557495 69.48256144 8.0625 80.375 C1.42045803 86.86257588 -5.68207764 89.08585142 -14.8125 89.375 C-22.65854139 89.27758865 -27.9204421 87.1958334 -33.84375 82.0859375 C-45.14390335 70.49063089 -47.07843541 54.95759887 -47.05883789 39.48339844 C-46.80020406 26.6783408 -43.49226973 14.64410319 -34.625 5 C-25.54162768 -3.1711533 -11.20327393 -5.12692197 0 0 Z " fill="#FC5C37" transform="translate(77.625,33)"/>
<path d="M0 0 C2.21974443 1.69123385 4.1254735 3.54592484 6.05078125 5.5625 C2.64056382 4.77552675 -0.63807041 3.69130057 -3.94921875 2.5625 C-3.94921875 1.5725 -3.94921875 0.5825 -3.94921875 -0.4375 C-6.58921875 -0.7675 -9.22921875 -1.0975 -11.94921875 -1.4375 C-12.93921875 0.2125 -13.92921875 1.8625 -14.94921875 3.5625 C-13.95921875 3.5625 -12.96921875 3.5625 -11.94921875 3.5625 C-12.27921875 4.8825 -12.60921875 6.2025 -12.94921875 7.5625 C-13.37332031 7.16417969 -13.79742187 6.76585937 -14.234375 6.35546875 C-15.11416016 5.56076172 -15.11416016 5.56076172 -16.01171875 4.75 C-16.58019531 4.22792969 -17.14867187 3.70585938 -17.734375 3.16796875 C-23.55917503 -1.0542408 -28.88397898 -1.91497781 -35.88671875 -2.125 C-37.05557617 -2.17624023 -37.05557617 -2.17624023 -38.24804688 -2.22851562 C-40.14796268 -2.3101071 -42.04856278 -2.37549885 -43.94921875 -2.4375 C-43.61921875 -3.7575 -43.28921875 -5.0775 -42.94921875 -6.4375 C-48.55921875 -5.7775 -54.16921875 -5.1175 -59.94921875 -4.4375 C-44.31412265 -14.8608974 -14.82861725 -9.42475155 0 0 Z " fill="#F8F0F2" transform="translate(98.94921875,33.4375)"/>
<path d="M0 0 C0.68707031 0.42152344 1.37414062 0.84304687 2.08203125 1.27734375 C2.98308594 1.82519531 3.88414063 2.37304688 4.8125 2.9375 C5.70582031 3.48277344 6.59914063 4.02804688 7.51953125 4.58984375 C14.93457148 8.80532332 24.84387651 7.51741832 33 6 C33 7.32 33 8.64 33 10 C26.4 10 19.8 10 13 10 C13.495 10.99 13.495 10.99 14 12 C16.31682936 12.39560664 16.31682936 12.39560664 19.0625 12.5 C23.95703825 12.87012154 28.33512354 13.44504118 33 15 C33.495 16.485 33.495 16.485 34 18 C33.37996094 17.79503906 32.75992188 17.59007812 32.12109375 17.37890625 C26.57737353 15.69238874 21.48481352 14.80506542 15.6875 14.5625 C3.15613517 13.88890737 -7.72809817 10.303664 -18 3 C-18.33 2.34 -18.66 1.68 -19 1 C-17.35369672 1.14042877 -15.70795821 1.28749329 -14.0625 1.4375 C-12.68771484 1.55931641 -12.68771484 1.55931641 -11.28515625 1.68359375 C-9 2 -9 2 -8 3 C-6.00041636 3.04080783 -3.99954746 3.04254356 -2 3 C-1.67 4.32 -1.34 5.64 -1 7 C-0.25042843 3.52852158 -0.25042843 3.52852158 0 0 Z " fill="#FBE7E6" transform="translate(43,114)"/>
<path d="M0 0 C-0.60049399 7.20592789 -2.84171264 12.53338588 -7.625 18 C-10 20 -10 20 -12 20 C-11.505 18.515 -11.505 18.515 -11 17 C-10.34 17 -9.68 17 -9 17 C-9 15.68 -9 14.36 -9 13 C-8.34 12.67 -7.68 12.34 -7 12 C-5.86649466 9.98330173 -5.86649466 9.98330173 -5 8 C-5.99 7.34 -6.98 6.68 -8 6 C-8.33 6.66 -8.66 7.32 -9 8 C-9.99 8 -10.98 8 -12 8 C-12.33 8.99 -12.66 9.98 -13 11 C-13.92232422 10.98259766 -13.92232422 10.98259766 -14.86328125 10.96484375 C-16.07564453 10.95130859 -16.07564453 10.95130859 -17.3125 10.9375 C-18.11300781 10.92589844 -18.91351563 10.91429687 -19.73828125 10.90234375 C-22.16861334 10.90342145 -22.16861334 10.90342145 -25 12 C-27.63808533 12.12465678 -30.23679461 12.1898165 -32.875 12.1875 C-34.00216431 12.1884668 -34.00216431 12.1884668 -35.15209961 12.18945312 C-41.91037026 12.12645897 -48.36048144 11.29326275 -55 10 C-55 9.34 -55 8.68 -55 8 C-55.70125 7.90203125 -56.4025 7.8040625 -57.125 7.703125 C-63.48801593 6.70025836 -68.39368706 5.17338469 -74 2 C-70.51563116 0.83854372 -69.74884955 1.19336882 -66.39453125 2.3984375 C-65.49283203 2.71296875 -64.59113281 3.0275 -63.66210938 3.3515625 C-62.72173828 3.68929687 -61.78136719 4.02703125 -60.8125 4.375 C-44.75809322 10.12717374 -27.03899097 11.87699202 -11 5 C-8.50139139 3.73637702 -6.09057601 2.42128244 -3.70703125 0.953125 C-2 0 -2 0 0 0 Z " fill="#FDE7E4" transform="translate(194,137)"/>
<path d="M0 0 C2.0625 0.4375 2.0625 0.4375 4 1 C0.535 2.485 0.535 2.485 -3 4 C2.62338249 6.14710968 8.27789404 8.13236819 14 10 C14 10.33 14 10.66 14 11 C10.7 11 7.4 11 4 11 C4 11.66 4 12.32 4 13 C3.34 13 2.68 13 2 13 C2 14.65 2 16.3 2 18 C2.66 18 3.32 18 4 18 C4 18.66 4 19.32 4 20 C5.32 20.66 6.64 21.32 8 22 C3.7604962 22 0.99537263 19.79545996 -2.5 17.625 C-3.17675781 17.2125 -3.85351562 16.8 -4.55078125 16.375 C-7.4040102 14.63042214 -10.21670241 12.85553173 -13 11 C-5.375 11.875 -5.375 11.875 -2 13 C-2 12.34 -2 11.68 -2 11 C-2.66 10.34 -3.32 9.68 -4 9 C-4.66 8.34 -5.32 7.68 -6 7 C-6 6.01 -6 5.02 -6 4 C-6.99 3.67 -7.98 3.34 -9 3 C-7 1 -7 1 -3.9375 0.9375 C-2.4834375 0.9684375 -2.4834375 0.9684375 -1 1 C-0.67 0.67 -0.34 0.34 0 0 Z " fill="#F9E7E5" transform="translate(90,121)"/>
<path d="M0 0 C1.04449911 3.13349732 0.93423645 3.98968256 0 7 C0.66 7.33 1.32 7.66 2 8 C1.67 8.99 1.34 9.98 1 11 C0.01 11 -0.98 11 -2 11 C-2 13.64 -2 16.28 -2 19 C-2.66 19 -3.32 19 -4 19 C-4.0879568 23.145697 -4.14071153 27.29115012 -4.1875 31.4375 C-4.21263672 32.60216797 -4.23777344 33.76683594 -4.26367188 34.96679688 C-4.31587525 41.14419621 -4.04277141 46.34938161 -1.71679688 52.11132812 C-0.60908006 55.03002611 -0.32909611 57.9064966 0 61 C-8.53568894 51.1680603 -8.06252837 33.89041223 -7.29248047 21.64599609 C-6.46053483 14.11959638 -4.21383539 6.32075308 0 0 Z " fill="#E77056" transform="translate(38,45)"/>
<path d="M0 0 C1.74313477 0.0009668 1.74313477 0.0009668 3.52148438 0.00195312 C8.4341162 0.0273779 13.00735904 0.08404019 17.8125 1.1875 C17.8125 1.5175 17.8125 1.8475 17.8125 2.1875 C13.1925 2.5175 8.5725 2.8475 3.8125 3.1875 C5.1325 4.1775 6.4525 5.1675 7.8125 6.1875 C2.5325 6.1875 -2.7475 6.1875 -8.1875 6.1875 C-7.8575 4.8675 -7.5275 3.5475 -7.1875 2.1875 C-12.7975 2.8475 -18.4075 3.5075 -24.1875 4.1875 C-16.84659457 -0.70643696 -8.50387848 -0.09051747 0 0 Z " fill="#FDE3E0" transform="translate(63.1875,24.8125)"/>
<path d="M0 0 C1.64574566 -0.02688151 3.29161413 -0.04634123 4.9375 -0.0625 C5.85402344 -0.07410156 6.77054688 -0.08570313 7.71484375 -0.09765625 C10 0 10 0 11 1 C13.32817964 1.36760731 15.6618385 1.70241581 18 2 C18 2.66 18 3.32 18 4 C21.41591308 6.07124761 24.0894914 6.25723942 28.05078125 6.265625 C29.81131836 6.26949219 29.81131836 6.26949219 31.60742188 6.2734375 C32.83009766 6.26570312 34.05277344 6.25796875 35.3125 6.25 C37.12911133 6.26160156 37.12911133 6.26160156 38.98242188 6.2734375 C45.11396495 6.26001321 50.1823985 5.85283934 56 4 C58.4375 4.375 58.4375 4.375 60 5 C39.36560988 13.1662604 20.12043423 8.03883178 0 1 C0 0.67 0 0.34 0 0 Z " fill="#E7775F" transform="translate(123,138)"/>
<path d="M0 0 C1.09570312 -0.01224609 2.19140625 -0.02449219 3.3203125 -0.03710938 C10.47243629 -0.0498205 17.14161556 0.64021485 24.125 2.1875 C24.62 3.6725 24.62 3.6725 25.125 5.1875 C24.15796143 4.97746338 24.15796143 4.97746338 23.17138672 4.76318359 C15.82045353 3.28252368 8.73985296 2.80313975 1.25 2.8125 C-0.46255981 2.81165405 -0.46255981 2.81165405 -2.2097168 2.81079102 C-10.54829321 2.91974921 -17.1273191 4.07090462 -24.875 7.1875 C-26.53403682 7.55693973 -28.19952158 7.90173618 -29.875 8.1875 C-29.545 7.5275 -29.215 6.8675 -28.875 6.1875 C-28.215 6.1875 -27.555 6.1875 -26.875 6.1875 C-27.205 5.1975 -27.535 4.2075 -27.875 3.1875 C-23.70732892 1.99956525 -19.5435548 1.78808155 -15.23828125 1.46875 C-2.91059747 0.00165375 -2.91059747 0.00165375 0 0 Z " fill="#E97257" transform="translate(61.875,22.8125)"/>
<path d="M0 0 C0.66 0.33 1.32 0.66 2 1 C1.61328125 1.54527344 1.2265625 2.09054688 0.828125 2.65234375 C-6.79242954 13.68705762 -9.17855884 22.53884766 -9.125 35.875 C-9.12886719 36.83019531 -9.13273438 37.78539062 -9.13671875 38.76953125 C-9.12916893 44.27334794 -8.81086382 49.55562861 -8 55 C-9.47729492 53.95849609 -9.47729492 53.95849609 -11 52 C-11.28624602 49.47014829 -11.39698735 47.19178071 -11.36328125 44.6640625 C-11.36377975 43.94769623 -11.36427826 43.23132996 -11.36479187 42.49325562 C-11.36245306 40.97854844 -11.35273573 39.46383727 -11.33618164 37.94921875 C-11.31265556 35.64026775 -11.31561346 33.3324774 -11.32226562 31.0234375 C-11.31668614 29.54947233 -11.30957456 28.075512 -11.30078125 26.6015625 C-11.30169266 25.91494537 -11.30260406 25.22832825 -11.30354309 24.52090454 C-11.24548317 20.55792401 -10.65668635 17.58935357 -9 14 C-8.69760205 12.27607322 -8.4262055 10.54639381 -8.1875 8.8125 C-7.69921875 6.17578125 -7.69921875 6.17578125 -7 4 C-4.5 2.5 -4.5 2.5 -2 2 C-1.34 1.34 -0.68 0.68 0 0 Z " fill="#E77058" transform="translate(18,41)"/>
<path d="M0 0 C5.73611803 8.60417704 4.99741718 21.45515408 3.1875 31.25 C2.11857862 35.94094993 0.63789313 40.47941496 -1 45 C-2.15744976 42.10637559 -1.97009627 40.90248355 -1.03564453 37.85522461 C0.06198559 33.76925638 0.25641942 30.06759195 0.1953125 25.87890625 C0.1924826 25.13414536 0.18965271 24.38938446 0.18673706 23.62205505 C0.17563917 21.26869899 0.1505551 18.91573891 0.125 16.5625 C0.11495672 14.95638575 0.10583324 13.35026546 0.09765625 11.74414062 C0.07573407 7.82927704 0.04127761 3.9147054 0 0 Z " fill="#FCDED8" transform="translate(116,56)"/>
<path d="M0 0 C5.19209404 -0.21192221 9.126739 0.4087311 14 2 C14 2.66 14 3.32 14 4 C15.19625 3.95875 16.3925 3.9175 17.625 3.875 C24.16323279 3.85407766 30.55857623 4.97377032 37 6 C37 6.33 37 6.66 37 7 C23.98247219 7.49225945 12.13352893 6.09608215 0 1 C0 0.67 0 0.34 0 0 Z " fill="#FDDBD3" transform="translate(125,159)"/>
<path d="M0 0 C0.66 0.33 1.32 0.66 2 1 C-1.82852312 7.05056791 -6.03241098 11.68169311 -13 14 C-15.2734375 13.62109375 -15.2734375 13.62109375 -17 13 C-16.21625 12.938125 -15.4325 12.87625 -14.625 12.8125 C-13.325625 12.4103125 -13.325625 12.4103125 -12 12 C-10.62533375 9.52363988 -10.62533375 9.52363988 -10 7 C-8.35 7 -6.7 7 -5 7 C-4.9175 6.401875 -4.835 5.80375 -4.75 5.1875 C-3.79544128 2.4033704 -2.42867729 1.56688858 0 0 Z " fill="#ED6449" transform="translate(87,107)"/>
<path d="M0 0 C0 3.12900213 -0.42451317 4.37418862 -2 7 C-2.99 7.495 -2.99 7.495 -4 8 C-4.33 8.99 -4.66 9.98 -5 11 C-8.55610043 13.56039231 -12.76501798 13.5765018 -17 14 C-15.02094433 12.51019863 -13.03818343 11.02778357 -11.03515625 9.5703125 C-7.01671284 6.62610644 -3.41478781 3.62821205 0 0 Z " fill="#EB6B51" transform="translate(109,109)"/>
<path d="M0 0 C1.64574566 -0.02688151 3.29161413 -0.04634123 4.9375 -0.0625 C5.85402344 -0.07410156 6.77054688 -0.08570313 7.71484375 -0.09765625 C10 0 10 0 11 1 C13.32817964 1.36760731 15.6618385 1.70241581 18 2 C17.67 2.99 17.34 3.98 17 5 C10.80481527 4.58411954 5.73310689 3.39748106 0 1 C0 0.67 0 0.34 0 0 Z " fill="#F16C4E" transform="translate(123,138)"/>
<path d="M0 0 C0.36263859 5.8022175 -0.74315457 9.63999211 -3 15 C-3.33 15 -3.66 15 -4 15 C-5.56154748 5.31418523 -5.56154748 5.31418523 -3 1 C-1 0 -1 0 0 0 Z " fill="#F06949" transform="translate(95,88)"/>
<path d="M0 0 C1.65 0 3.3 0 5 0 C5 2.31 5 4.62 5 7 C2.03 7 -0.94 7 -4 7 C-4 6.34 -4 5.68 -4 5 C-2.68 4.34 -1.36 3.68 0 3 C0 2.01 0 1.02 0 0 Z " fill="#EE6E51" transform="translate(195,193)"/>
<path d="M0 0 C0.8125 1.6875 0.8125 1.6875 1 4 C-1.375 6.5625 -1.375 6.5625 -4 9 C-4.33 9.99 -4.66 10.98 -5 12 C-4.34 12.33 -3.68 12.66 -3 13 C-6.3 13 -9.6 13 -13 13 C-12.278125 12.443125 -11.55625 11.88625 -10.8125 11.3125 C-6.692424 7.92488196 -3.07422448 4.36863479 0 0 Z " fill="#FDDFD7" transform="translate(89,107)"/>
<path d="M0 0 C0.66 0.33 1.32 0.66 2 1 C0.88321917 2.6721852 -0.24366352 4.33762803 -1.375 6 C-2.00148438 6.928125 -2.62796875 7.85625 -3.2734375 8.8125 C-3.84320313 9.534375 -4.41296875 10.25625 -5 11 C-5.66 11 -6.32 11 -7 11 C-7.33 11.66 -7.66 12.32 -8 13 C-8.36617262 6.53095031 -8.36617262 6.53095031 -6.75 4.1875 C-4.89830833 2.93099494 -3.02638399 1.94564586 -1 1 C-0.67 0.67 -0.34 0.34 0 0 Z " fill="#F06644" transform="translate(18,41)"/>
<path d="M0 0 C6.26418531 1.48362284 10.91513505 5.24162156 16 9 C11.82412255 10.39195915 9.86525224 8.82323219 6 7 C6 6.01 6 5.02 6 4 C5.071875 3.7834375 5.071875 3.7834375 4.125 3.5625 C2 3 2 3 0 2 C0 1.34 0 0.68 0 0 Z " fill="#FDE1DE" transform="translate(89,29)"/>
<path d="M0 0 C2.97 0 5.94 0 9 0 C7 3 7 3 4 4 C3.67 4.99 3.34 5.98 3 7 C2.01 7.33 1.02 7.66 0 8 C0 5.36 0 2.72 0 0 Z " fill="#EC7558" transform="translate(0,0)"/>
<path d="M0 0 C2.87575868 0.11454804 5.75012112 0.2412847 8.625 0.375 C9.83736328 0.42140625 9.83736328 0.42140625 11.07421875 0.46875 C15.71838314 0.6952946 19.62693856 1.2592668 24 3 C24 3.33 24 3.66 24 4 C21.03 4 18.06 4 15 4 C15 3.34 15 2.68 15 2 C10.05 2 5.1 2 0 2 C0 1.34 0 0.68 0 0 Z " fill="#E86D50" transform="translate(48,127)"/>
<path d="M0 0 C-1.41680244 4.32046898 -3.53763785 7.00461199 -6.625 10.3125 C-7.44226563 11.19550781 -8.25953125 12.07851562 -9.1015625 12.98828125 C-10.04128906 13.98408203 -10.04128906 13.98408203 -11 15 C-11.33 14.01 -11.66 13.02 -12 12 C-11.01 11.67 -10.02 11.34 -9 11 C-7.87483915 9.16715557 -7.87483915 9.16715557 -7 7 C-3.81818182 0 -3.81818182 0 0 0 Z " fill="#FCE9E0" transform="translate(114,101)"/>
<path d="M0 0 C1.98 0 3.96 0 6 0 C6 2.64 6 5.28 6 8 C4.02 7.01 2.04 6.02 0 5 C0 3.35 0 1.7 0 0 Z " fill="#EB7356" transform="translate(194,0)"/>
<path d="M0 0 C1.32 0.66 2.64 1.32 4 2 C4 2.99 4 3.98 4 5 C4.99 5.33 5.98 5.66 7 6 C7 6.66 7 7.32 7 8 C-3.55808656 4.92482916 -3.55808656 4.92482916 -8 3 C-7.401875 2.855625 -6.80375 2.71125 -6.1875 2.5625 C-2.81112801 1.83781742 -2.81112801 1.83781742 0 0 Z " fill="#F06C50" transform="translate(115,130)"/>
<path d="M0 0 C0 0.99 0 1.98 0 3 C-6.93 2.67 -13.86 2.34 -21 2 C-20.67 1.34 -20.34 0.68 -20 0 C-19.11957031 0.01160156 -18.23914062 0.02320312 -17.33203125 0.03515625 C-16.17058594 0.04417969 -15.00914063 0.05320312 -13.8125 0.0625 C-12.66394531 0.07410156 -11.51539062 0.08570312 -10.33203125 0.09765625 C-7.06851088 0.09617381 -7.06851088 0.09617381 -4.19921875 -0.56640625 C-2 -1 -2 -1 0 0 Z " fill="#FCE2D9" transform="translate(76,121)"/>
<path d="M0 0 C4.29 0 8.58 0 13 0 C12.67 0.99 12.34 1.98 12 3 C8.85691721 4.32816109 6.49136376 3.87284094 3.25 3.0625 C2.45078125 2.86785156 1.6515625 2.67320313 0.828125 2.47265625 C0.22484375 2.31667969 -0.3784375 2.16070313 -1 2 C-0.67 1.34 -0.34 0.68 0 0 Z " fill="#F5F6FC" transform="translate(67,27)"/>
<path d="M0 0 C0.33 0 0.66 0 1 0 C1 2.31 1 4.62 1 7 C1.66 7 2.32 7 3 7 C2.67 7.99 2.34 8.98 2 10 C0.35 10.66 -1.3 11.32 -3 12 C-2.01 8.04 -1.02 4.08 0 0 Z " fill="#EE6B4D" transform="translate(194,137)"/>
<path d="M0 0 C-0.33 2.31 -0.66 4.62 -1 7 C-2.65 6.01 -4.3 5.02 -6 4 C-6.33 4.66 -6.66 5.32 -7 6 C-7 4.68 -7 3.36 -7 2 C-4.35261084 0.5393715 -3.10551666 0 0 0 Z " fill="#F9ECEB" transform="translate(192,139)"/>
<path d="M0 0 C0 0.66 0 1.32 0 2 C-0.99 2 -1.98 2 -3 2 C-3.268125 2.639375 -3.53625 3.27875 -3.8125 3.9375 C-5 6 -5 6 -8 7 C-8.99 6.34 -9.98 5.68 -11 5 C-2.29032258 0 -2.29032258 0 0 0 Z " fill="#FCE7DF" transform="translate(39,29)"/>
<path d="M0 0 C5.67276511 -0.29341888 8.99067246 -0.00559652 14 3 C14 3.66 14 4.32 14 5 C12.22739369 4.54857225 10.4569632 4.08859477 8.6875 3.625 C7.20830078 3.24214844 7.20830078 3.24214844 5.69921875 2.8515625 C3 2 3 2 0 0 Z " fill="#EC7057" transform="translate(92,127)"/>
<path d="M0 0 C3.63 1.98 7.26 3.96 11 6 C11 6.33 11 6.66 11 7 C8.69 7 6.38 7 4 7 C3.67 6.01 3.34 5.02 3 4 C2.01 3.34 1.02 2.68 0 2 C0 1.34 0 0.68 0 0 Z " fill="#EB674A" transform="translate(92,141)"/>
<path d="M0 0 C0.66 0.33 1.32 0.66 2 1 C1.02471263 2.33617352 0.04466681 3.6688751 -0.9375 5 C-1.48277344 5.7425 -2.02804688 6.485 -2.58984375 7.25 C-3.28787109 8.11625 -3.28787109 8.11625 -4 9 C-4.33 9 -4.66 9 -5 9 C-5.3125 6.75 -5.3125 6.75 -5 4 C-2.5 1.6875 -2.5 1.6875 0 0 Z " fill="#EB6D53" transform="translate(87,107)"/>
<path d="M0 0 C2.31 0 4.62 0 7 0 C7.12375 0.5775 7.2475 1.155 7.375 1.75 C8.00725613 4.02612206 8.91863468 5.90760206 10 8 C8.51714758 7.04737966 7.03881799 6.08771595 5.5625 5.125 C4.73878906 4.59132813 3.91507812 4.05765625 3.06640625 3.5078125 C1 2 1 2 0 0 Z " fill="#EA6A4D" transform="translate(97,32)"/>
<path d="M0 0 C2.64 1.98 5.28 3.96 8 6 C5 7 5 7 1.8125 5.5625 C0.884375 5.046875 -0.04375 4.53125 -1 4 C-0.67 2.68 -0.34 1.36 0 0 Z " fill="#EC6749" transform="translate(20,112)"/>
<path d="M0 0 C0.33 0 0.66 0 1 0 C1.66 5.28 2.32 10.56 3 16 C0 13 0 13 -0.29296875 9.86328125 C-0.25816406 8.69152344 -0.22335938 7.51976563 -0.1875 6.3125 C-0.16042969 5.13300781 -0.13335938 3.95351562 -0.10546875 2.73828125 C-0.07066406 1.83464844 -0.03585938 0.93101563 0 0 Z " fill="#E9664B" transform="translate(7,80)"/>
<path d="M0 0 C1.04449911 3.13349732 0.93423645 3.98968256 0 7 C0.66 7.33 1.32 7.66 2 8 C1.67 8.99 1.34 9.98 1 11 C-0.32 11 -1.64 11 -3 11 C-2.25 3.375 -2.25 3.375 0 0 Z " fill="#F36446" transform="translate(38,45)"/>
<path d="M0 0 C3.95820859 0.56545837 6.6659053 1.80902348 10 4 C9.67 5.32 9.34 6.64 9 8 C7.87411986 7.04270084 6.7493285 6.08412105 5.625 5.125 C4.99851562 4.59132813 4.37203125 4.05765625 3.7265625 3.5078125 C2.44163349 2.38567993 1.20628025 1.20628025 0 0 Z " fill="#FEE3DC" transform="translate(77,33)"/>
<path d="M0 0 C1.4540625 0.0309375 1.4540625 0.0309375 2.9375 0.0625 C2.2775 1.3825 1.6175 2.7025 0.9375 4.0625 C-0.7125 4.0625 -2.3625 4.0625 -4.0625 4.0625 C-4.0625 0.08290816 -4.0625 0.08290816 0 0 Z " fill="#F3F7FC" transform="translate(48.0625,120.9375)"/>
<path d="M0 0 C0.33 0.66 0.66 1.32 1 2 C3.02463255 2.65213292 3.02463255 2.65213292 5 3 C-0.75 7 -0.75 7 -3 7 C-3 6.34 -3 5.68 -3 5 C-2.34 5 -1.68 5 -1 5 C-0.67 3.35 -0.34 1.7 0 0 Z " fill="#FAE5E0" transform="translate(97,114)"/>
<path d="M0 0 C0 3.64478912 -0.85802506 5.09303401 -3 8 C-5.1875 8.8125 -5.1875 8.8125 -7 9 C-2.85714286 2.57142857 -2.85714286 2.57142857 0 0 Z " fill="#FEE2D9" transform="translate(22,39)"/>
<path d="M0 0 C0.33 0 0.66 0 1 0 C1 2.31 1 4.62 1 7 C-0.98 7 -2.96 7 -5 7 C-4.0409375 6.1028125 -4.0409375 6.1028125 -3.0625 5.1875 C-0.79689611 3.09189663 -0.79689611 3.09189663 0 0 Z " fill="#FCEEE3" transform="translate(199,193)"/>
<path d="M0 0 C0.61875 0.78375 1.2375 1.5675 1.875 2.375 C3.89858661 4.96837647 3.89858661 4.96837647 6 7 C4.02 7 2.04 7 0 7 C0 4.69 0 2.38 0 0 Z " fill="#FDEEDF" transform="translate(0,193)"/>
<path d="M0 0 C-3.08888522 2.05925681 -3.70935927 2.2390374 -7.1875 2.125 C-9.0746875 2.063125 -9.0746875 2.063125 -11 2 C-6.98764085 -0.6749061 -4.6342454 -1.48957888 0 0 Z " fill="#FCD9D2" transform="translate(181,145)"/>
<path d="M0 0 C-0.33 0.99 -0.66 1.98 -1 3 C-2.98 3 -4.96 3 -7 3 C-7.33 2.34 -7.66 1.68 -8 1 C-5.23735711 0.40267181 -2.83967231 0 0 0 Z " fill="#EF6445" transform="translate(141,140)"/>
<path d="M0 0 C0 0.66 0 1.32 0 2 C0.66 2.33 1.32 2.66 2 3 C-1.3 3 -4.6 3 -8 3 C-5.48696401 0.48696401 -3.51117809 0 0 0 Z " fill="#FAE9E0" transform="translate(84,117)"/>
<path d="M0 0 C1.98 0 3.96 0 6 0 C6 1.98 6 3.96 6 6 C3.97945196 4.35830472 1.97956942 2.69088222 0 1 C0 0.67 0 0.34 0 0 Z " fill="#FEF2E8" transform="translate(194,0)"/>
<path d="M0 0 C1.98 0 3.96 0 6 0 C4.35830472 2.02054804 2.69088222 4.02043058 1 6 C0.67 6 0.34 6 0 6 C0 4.02 0 2.04 0 0 Z " fill="#FFF4E5" transform="translate(0,0)"/>
</svg>
